<svg id="Layer_1" data-name="Layer 1" xmlns="http://www.w3.org/2000/svg" viewBox="0 0 185.8 27.74"><defs><style>.cls-1{fill:#36251e;}.cls-2{fill:#685e58;}</style></defs><title>williams_logo</title><path class="cls-1" d="M7.18,7.83H17.6L17.7,11H17.26A3.76,3.76,0,0,0,16.43,9a3.38,3.38,0,0,0-2.1-.45h-1V18a1.74,1.74,0,0,0,.33,1.32,3.07,3.07,0,0,0,1.46.34V20H9.72V19.68a2.56,2.56,0,0,0,1.46-.39,2.41,2.41,0,0,0,.29-1.49V8.59h-1A3.52,3.52,0,0,0,8.35,9,3.26,3.26,0,0,0,7.52,11H7.07Z" transform="translate(-7.07 -7.39)"/><path class="cls-1" d="M17.42,19.77a2.3,2.3,0,0,0,1.22-.33,2,2,0,0,0,.25-1.29V13.86A2.73,2.73,0,0,0,18.81,13a0.54,0.54,0,0,0-.57-0.37L18,12.7l-0.54.14V12.56l0.39-.13q1.57-.51,2.2-0.77a1.16,1.16,0,0,1,.32-0.11,0.48,0.48,0,0,1,0,.14v6.46a2.11,2.11,0,0,0,.25,1.29,1.85,1.85,0,0,0,1.12.33V20H17.42V19.77Zm1.43-12a0.89,0.89,0,0,1,.67-0.28,0.94,0.94,0,1,1-.94.94A0.92,0.92,0,0,1,18.85,7.74Z" transform="translate(-7.07 -7.39)"/><path class="cls-1" d="M22.48,19.79a2.05,2.05,0,0,0,.94-0.23,1.23,1.23,0,0,0,.36-1V13.86A1.46,1.46,0,0,0,23.6,13,0.72,0.72,0,0,0,23,12.78l-0.28,0-0.22.06V12.54l0.65-.22,1.15-.42q0.8-.31.85-0.31a0.05,0.05,0,0,1,.05,0,1.07,1.07,0,0,1,0,.17V13a6.87,6.87,0,0,1,1.54-1.12,3,3,0,0,1,1.33-.31,1.86,1.86,0,0,1,1.48.63,2.74,2.74,0,0,1,.48.93,7.53,7.53,0,0,1,1.16-1A3.16,3.16,0,0,1,33,11.6a1.89,1.89,0,0,1,1.94,1.18,5.84,5.84,0,0,1,.28,2.11v3.73a1.08,1.08,0,0,0,.28.87,2,2,0,0,0,1,.3V20H32.42V19.77a1.77,1.77,0,0,0,1-.31,1.42,1.42,0,0,0,.25-1V14.59a3.28,3.28,0,0,0-.19-1.29,1.29,1.29,0,0,0-1.31-.74,2.07,2.07,0,0,0-1.16.39,5.78,5.78,0,0,0-.82.72v4.61a2,2,0,0,0,.26,1.11,1.3,1.3,0,0,0,1.08.41V20H27.43V19.79a1.65,1.65,0,0,0,1.09-.41,3,3,0,0,0,.23-1.51V15.35a6.74,6.74,0,0,0-.18-1.9,1.21,1.21,0,0,0-1.26-.88,2.17,2.17,0,0,0-1.08.3,3.4,3.4,0,0,0-.94.79v4.92a1.42,1.42,0,0,0,.24.95,1.48,1.48,0,0,0,1,.27V20h-4.1V19.79Z" transform="translate(-7.07 -7.39)"/><path class="cls-1" d="M37.76,12.82a3.8,3.8,0,0,1,2.93-1.24,4,4,0,0,1,3,1.17,4.21,4.21,0,0,1,1.17,3.11A4.63,4.63,0,0,1,43.68,19a3.68,3.68,0,0,1-2.93,1.32A3.87,3.87,0,0,1,37.82,19a4.46,4.46,0,0,1-1.2-3.19A4.31,4.31,0,0,1,37.76,12.82Zm1.44-.23a3.69,3.69,0,0,0-.9,2.83,6.34,6.34,0,0,0,.73,3,2.22,2.22,0,0,0,2,1.39,1.71,1.71,0,0,0,1.56-.93,4.75,4.75,0,0,0,.55-2.43,6.43,6.43,0,0,0-.69-2.93,2.18,2.18,0,0,0-2-1.38A1.79,1.79,0,0,0,39.2,12.59Z" transform="translate(-7.07 -7.39)"/><path class="cls-1" d="M50.06,11.72v0.65H48.22l0,5.18a3.46,3.46,0,0,0,.12,1,0.83,0.83,0,0,0,.85.62,1,1,0,0,0,.56-0.15,3,3,0,0,0,.54-0.49l0.23,0.2-0.2.27a2.88,2.88,0,0,1-1,.89,2.25,2.25,0,0,1-1,.26,1.42,1.42,0,0,1-1.44-.94,3.92,3.92,0,0,1-.21-1.42V12.37h-1l-0.07-.05a0.11,0.11,0,0,1,0-.07,0.21,0.21,0,0,1,0-.14l0.26-.23a7.79,7.79,0,0,0,.9-0.83q0.27-.32,1.29-1.69l0.14,0a0.22,0.22,0,0,1,0,.14v2.21h1.82Z" transform="translate(-7.07 -7.39)"/><path class="cls-1" d="M50.65,19.77a1.57,1.57,0,0,0,1-.36,2.18,2.18,0,0,0,.23-1.26V9.51a1.61,1.61,0,0,0-.13-0.74,0.67,0.67,0,0,0-.63-0.24H50.89l-0.21,0V8.25l1-.28,0.81-.24,0.86-.27,0,0.06V13a5.91,5.91,0,0,1,1-1,3,3,0,0,1,1.71-.54,2,2,0,0,1,2,1.22,4.24,4.24,0,0,1,.29,1.7v3.67a2.29,2.29,0,0,0,.22,1.24,1.34,1.34,0,0,0,.9.38V20h-3.9V19.77a1.68,1.68,0,0,0,1-.37,2.19,2.19,0,0,0,.23-1.25V14.5a3,3,0,0,0-.29-1.41,1.14,1.14,0,0,0-1.1-.54,2.21,2.21,0,0,0-1.36.5,1.74,1.74,0,0,0-.66.66v4.44a2.12,2.12,0,0,0,.23,1.26,1.75,1.75,0,0,0,1,.36V20h-4V19.77Z" transform="translate(-7.07 -7.39)"/><path class="cls-1" d="M58.85,11.75h3.8V12a2.37,2.37,0,0,0-.67.08,0.48,0.48,0,0,0-.41.47,0.82,0.82,0,0,0,0,.26q0,0.13.16,0.4l2.08,4.5,1.72-4.54s0-.16.09-0.33a2,2,0,0,0,.06-0.35,0.39,0.39,0,0,0-.16-0.35A0.83,0.83,0,0,0,65.15,12l-0.28,0V11.75h2.48V12a0.84,0.84,0,0,0-.55.26,1.85,1.85,0,0,0-.32.59l-2.84,7.51a11.48,11.48,0,0,1-1.41,2.82,2.07,2.07,0,0,1-1.71.87,1.87,1.87,0,0,1-.95-0.25,0.86,0.86,0,0,1-.44-0.8,0.75,0.75,0,0,1,.26-0.59A1,1,0,0,1,60,22.18a2.21,2.21,0,0,1,.69.17,2.2,2.2,0,0,0,.65.17q0.5,0,1-1.22A5.33,5.33,0,0,0,63,19.69a0.9,0.9,0,0,0,0-.2,1.41,1.41,0,0,0-.06-0.2l-2.84-6.13a3,3,0,0,0-.54-0.88A1.24,1.24,0,0,0,58.85,12V11.75Z" transform="translate(-7.07 -7.39)"/><path class="cls-1" d="M72.72,19.68A2.72,2.72,0,0,0,74,19.32,1.79,1.79,0,0,0,74.34,18V9.82a1.91,1.91,0,0,0-.3-1.3,2.28,2.28,0,0,0-1.32-.36V7.83h5a9.82,9.82,0,0,1,4.25.83A5.37,5.37,0,0,1,85.07,14a6.28,6.28,0,0,1-.56,2.62,5.38,5.38,0,0,1-1.7,2.1,5.72,5.72,0,0,1-1.49.82,10.08,10.08,0,0,1-3.47.52H72.72V19.68Zm3.71-.49a1.9,1.9,0,0,0,.91.14,6.7,6.7,0,0,0,3.56-.86A4.85,4.85,0,0,0,83,14a5.18,5.18,0,0,0-1.76-4.27,6.17,6.17,0,0,0-4-1.23,1.78,1.78,0,0,0-.84.14,0.65,0.65,0,0,0-.22.59V18.6A0.67,0.67,0,0,0,76.44,19.19Z" transform="translate(-7.07 -7.39)"/><path class="cls-1" d="M85.07,19.94a1,1,0,0,1-.3-0.72,1,1,0,0,1,.3-0.72,1,1,0,0,1,.72-0.3,1,1,0,0,1,1,1,1,1,0,0,1-.29.72,1,1,0,0,1-.72.3A1,1,0,0,1,85.07,19.94Z" transform="translate(-7.07 -7.39)"/><path class="cls-1" d="M96.28,7.83V8.17a3,3,0,0,0-.78.1,0.56,0.56,0,0,0-.41.56,1.27,1.27,0,0,0,0,.35q0,0.17.15,0.44L98,16.55l1.95-5.17L99,9.12a1.39,1.39,0,0,0-.73-0.82,2.39,2.39,0,0,0-.87-0.14V7.83h4.94V8.17a3.53,3.53,0,0,0-1,.1,0.61,0.61,0,0,0-.41.63,1,1,0,0,0,0,.28c0,0.08.08,0.25,0.18,0.5l2.66,6.91,2.31-6.26a5.4,5.4,0,0,0,.27-0.95,2.07,2.07,0,0,0,0-.38A0.71,0.71,0,0,0,106,8.3a2.34,2.34,0,0,0-.81-0.14V7.83h3.66V8.17a2.14,2.14,0,0,0-.76.23,1.61,1.61,0,0,0-.7.9l-1.93,5.5-0.74,2.12-1.17,3.33h-0.28l-0.81-2.11-2.13-5.68-2.83,7.79H97.23l-1.37-3.82L94.3,12.1A23.13,23.13,0,0,0,93,8.82a1.41,1.41,0,0,0-1.19-.65V7.83h4.52Z" transform="translate(-7.07 -7.39)"/><path class="cls-1" d="M108.33,19.77a2.29,2.29,0,0,0,1.21-.33,2,2,0,0,0,.25-1.29V13.86a2.74,2.74,0,0,0-.08-0.81,0.54,0.54,0,0,0-.57-0.37l-0.19,0-0.54.14V12.56l0.39-.13q1.57-.51,2.2-0.77a1.16,1.16,0,0,1,.32-0.11,0.5,0.5,0,0,1,0,.14v6.46a2.11,2.11,0,0,0,.25,1.29,1.85,1.85,0,0,0,1.12.33V20h-4.37V19.77Zm1.43-12a0.89,0.89,0,0,1,.67-0.28,0.94,0.94,0,0,1,.94.94,0.94,0.94,0,1,1-1.87,0A0.92,0.92,0,0,1,109.76,7.74Z" transform="translate(-7.07 -7.39)"/><path class="cls-1" d="M113.47,19.77a2.13,2.13,0,0,0,1.13-.34,1.3,1.3,0,0,0,.3-1V9.64a2.28,2.28,0,0,0-.1-0.82,0.73,0.73,0,0,0-.73-0.38l-0.27,0-0.37.08V8.25q1.22-.32,2.92-0.86a0.07,0.07,0,0,1,.08.05,1.25,1.25,0,0,1,0,.23V18.47a1.35,1.35,0,0,0,.27,1,2.1,2.1,0,0,0,1.12.29V20h-4.36V19.77Z" transform="translate(-7.07 -7.39)"/><path class="cls-1" d="M118.59,19.77a2.13,2.13,0,0,0,1.13-.34,1.3,1.3,0,0,0,.3-1V9.64a2.28,2.28,0,0,0-.1-0.82,0.73,0.73,0,0,0-.73-0.38l-0.27,0-0.37.08V8.25q1.22-.32,2.92-0.86a0.07,0.07,0,0,1,.08.05,1.25,1.25,0,0,1,0,.23V18.47a1.35,1.35,0,0,0,.27,1,2.1,2.1,0,0,0,1.12.29V20h-4.36V19.77Z" transform="translate(-7.07 -7.39)"/><path class="cls-1" d="M123.33,19.77a2.29,2.29,0,0,0,1.21-.33,2,2,0,0,0,.25-1.29V13.86a2.74,2.74,0,0,0-.08-0.81,0.54,0.54,0,0,0-.57-0.37l-0.19,0-0.54.14V12.56l0.39-.13q1.57-.51,2.2-0.77a1.16,1.16,0,0,1,.32-0.11,0.5,0.5,0,0,1,0,.14v6.46a2.11,2.11,0,0,0,.25,1.29,1.85,1.85,0,0,0,1.12.33V20h-4.37V19.77Zm1.43-12a0.89,0.89,0,0,1,.67-0.28,0.94,0.94,0,0,1,.94.94,0.94,0.94,0,1,1-1.87,0A0.92,0.92,0,0,1,124.76,7.74Z" transform="translate(-7.07 -7.39)"/><path class="cls-1" d="M129.7,16.05a19.68,19.68,0,0,1,3.3-1.47V13.82a3.15,3.15,0,0,0-.18-1.28,1.28,1.28,0,0,0-1.27-.6,1.75,1.75,0,0,0-.87.23,0.74,0.74,0,0,0-.41.67,2.54,2.54,0,0,0,0,.36,2.52,2.52,0,0,1,0,.33,0.75,0.75,0,0,1-.33.7,0.83,0.83,0,0,1-.45.12,0.75,0.75,0,0,1-.62-0.27,0.91,0.91,0,0,1-.22-0.59,1.88,1.88,0,0,1,.78-1.32,3.34,3.34,0,0,1,2.28-.69,2.45,2.45,0,0,1,2.37,1.13,3.92,3.92,0,0,1,.33,1.81V18a2.41,2.41,0,0,0,.07.72,0.47,0.47,0,0,0,.49.35,0.81,0.81,0,0,0,.34-0.06,3.48,3.48,0,0,0,.47-0.31v0.47a3,3,0,0,1-.62.58,1.81,1.81,0,0,1-1,.34,1,1,0,0,1-.89-0.4,1.77,1.77,0,0,1-.3-0.94,8.51,8.51,0,0,1-1.17.88,3.07,3.07,0,0,1-1.56.49,1.87,1.87,0,0,1-1.34-.54,1.83,1.83,0,0,1-.57-1.38A2.56,2.56,0,0,1,129.7,16.05Zm3.3-1a8.27,8.27,0,0,0-1.71.76,2.23,2.23,0,0,0-1.3,1.82,1.38,1.38,0,0,0,.54,1.21,1.31,1.31,0,0,0,.78.25,2.15,2.15,0,0,0,1.14-.33,1,1,0,0,0,.54-0.85V15Z" transform="translate(-7.07 -7.39)"/><path class="cls-1" d="M136.2,19.79a2.06,2.06,0,0,0,.94-0.23,1.23,1.23,0,0,0,.36-1V13.86a1.47,1.47,0,0,0-.17-0.87,0.72,0.72,0,0,0-.58-0.21l-0.28,0-0.22.06V12.54l0.65-.22L138,11.9q0.8-.31.85-0.31a0.05,0.05,0,0,1,.05,0,1.07,1.07,0,0,1,0,.17V13a6.89,6.89,0,0,1,1.54-1.12,3.05,3.05,0,0,1,1.33-.31,1.86,1.86,0,0,1,1.48.63,2.75,2.75,0,0,1,.48.93,7.55,7.55,0,0,1,1.16-1,3.17,3.17,0,0,1,1.75-.56,1.89,1.89,0,0,1,1.94,1.18,5.85,5.85,0,0,1,.28,2.11v3.73a1.07,1.07,0,0,0,.28.87,2,2,0,0,0,1,.3V20h-4.06V19.77a1.77,1.77,0,0,0,1-.31,1.42,1.42,0,0,0,.25-1V14.59a3.28,3.28,0,0,0-.19-1.29,1.29,1.29,0,0,0-1.31-.74,2.07,2.07,0,0,0-1.16.39,5.8,5.8,0,0,0-.82.72v4.61a2,2,0,0,0,.26,1.11,1.3,1.3,0,0,0,1.08.41V20h-4.13V19.79a1.65,1.65,0,0,0,1.09-.41,3,3,0,0,0,.23-1.51V15.35a6.72,6.72,0,0,0-.18-1.9,1.21,1.21,0,0,0-1.26-.88,2.17,2.17,0,0,0-1.08.3,3.4,3.4,0,0,0-.94.79v4.92a1.42,1.42,0,0,0,.24.95,1.48,1.48,0,0,0,1,.27V20h-4.1V19.79Z" transform="translate(-7.07 -7.39)"/><path class="cls-1" d="M150.84,17.19h0.3a4.71,4.71,0,0,0,.56,1.57,2,2,0,0,0,1.84,1,1.48,1.48,0,0,0,1.06-.37,1.28,1.28,0,0,0,.39-1,1.34,1.34,0,0,0-.22-0.73A2.31,2.31,0,0,0,154,17l-1-.58a5.76,5.76,0,0,1-1.63-1.2,2.1,2.1,0,0,1-.52-1.42,2.13,2.13,0,0,1,.72-1.66,2.6,2.6,0,0,1,1.81-.65,3.52,3.52,0,0,1,1,.18,4.85,4.85,0,0,0,.64.18,0.46,0.46,0,0,0,.23,0,0.38,0.38,0,0,0,.13-0.14h0.22l0.06,2.51h-0.28a4.17,4.17,0,0,0-.49-1.36,1.79,1.79,0,0,0-1.61-.9,1.28,1.28,0,0,0-1.35,1.3,1.83,1.83,0,0,0,1.24,1.48l1.19,0.64q1.92,1,1.92,2.43a2.17,2.17,0,0,1-.79,1.74,3.11,3.11,0,0,1-2.08.67,4.86,4.86,0,0,1-1.22-.18,5.5,5.5,0,0,0-.81-0.18,0.26,0.26,0,0,0-.19.08,0.51,0.51,0,0,0-.13.18h-0.23V17.19Z" transform="translate(-7.07 -7.39)"/><path class="cls-1" d="M159.43,21.53A4.06,4.06,0,0,1,158,22.65l-0.17-.36A3.06,3.06,0,0,0,159,21.24a2,2,0,0,0,.33-0.94,0.16,0.16,0,0,0-.08-0.16,0.41,0.41,0,0,0-.17,0l-0.6.06a1.1,1.1,0,0,1-.69-0.25,0.86,0.86,0,0,1-.31-0.72,1.15,1.15,0,0,1,.26-0.7,1,1,0,0,1,.85-0.34,1.41,1.41,0,0,1,1,.45,1.67,1.67,0,0,1,.45,1.24A2.59,2.59,0,0,1,159.43,21.53Z" transform="translate(-7.07 -7.39)"/><path class="cls-1" d="M165,19.74a2.2,2.2,0,0,0,1.07-.29,1.45,1.45,0,0,0,.25-1.05V11.74a1.55,1.55,0,0,0-.24-1.05,1.85,1.85,0,0,0-1.08-.29V10.11h4a8,8,0,0,1,3.45.67,4.36,4.36,0,0,1,2.54,4.31,5.1,5.1,0,0,1-.46,2.13,4.36,4.36,0,0,1-1.38,1.7,4.65,4.65,0,0,1-1.21.67,8.19,8.19,0,0,1-2.82.42H165V19.74Zm3-.4a1.54,1.54,0,0,0,.74.12,5.45,5.45,0,0,0,2.89-.7,3.94,3.94,0,0,0,1.74-3.65A4.21,4.21,0,0,0,172,11.65a5,5,0,0,0-3.25-1,1.45,1.45,0,0,0-.68.11,0.53,0.53,0,0,0-.18.48v7.62A0.54,0.54,0,0,0,168,19.35Z" transform="translate(-7.07 -7.39)"/><path class="cls-1" d="M175.25,19.74a2.2,2.2,0,0,0,1.07-.29,1.45,1.45,0,0,0,.25-1.05V11.74a1.55,1.55,0,0,0-.24-1.05,1.85,1.85,0,0,0-1.08-.29V10.11h4a8,8,0,0,1,3.45.67,4.36,4.36,0,0,1,2.54,4.31,5.1,5.1,0,0,1-.46,2.13,4.36,4.36,0,0,1-1.38,1.7,4.65,4.65,0,0,1-1.21.67,8.19,8.19,0,0,1-2.82.42h-4.16V19.74Zm3-.4a1.54,1.54,0,0,0,.74.12,5.45,5.45,0,0,0,2.89-.7,3.94,3.94,0,0,0,1.74-3.65,4.21,4.21,0,0,0-1.43-3.47,5,5,0,0,0-3.25-1,1.45,1.45,0,0,0-.68.11,0.53,0.53,0,0,0-.18.48v7.62A0.54,0.54,0,0,0,178.26,19.35Z" transform="translate(-7.07 -7.39)"/><path class="cls-1" d="M186.49,17a5.41,5.41,0,0,0,.89,1.61,2.79,2.79,0,0,0,2.21,1,1.83,1.83,0,0,0,1.24-.45,1.59,1.59,0,0,0,.52-1.27,1.77,1.77,0,0,0-.53-1.27,9.21,9.21,0,0,0-1.45-1l-1.28-.8a4.59,4.59,0,0,1-.92-0.74,2.3,2.3,0,0,1-.64-1.56,2.56,2.56,0,0,1,.75-1.89,2.7,2.7,0,0,1,2-.75,3.84,3.84,0,0,1,1.23.25,5.27,5.27,0,0,0,.82.25,0.47,0.47,0,0,0,.38-0.13,0.94,0.94,0,0,0,.17-0.37h0.31l0.33,3.19h-0.36a3.37,3.37,0,0,0-1.17-2,2.77,2.77,0,0,0-1.6-.57,1.68,1.68,0,0,0-1.07.36,1.21,1.21,0,0,0-.46,1,1.47,1.47,0,0,0,.35,1,4.52,4.52,0,0,0,1.09.87l1.32,0.81a6.86,6.86,0,0,1,1.74,1.4,2.41,2.41,0,0,1,.5,1.52,2.52,2.52,0,0,1-.89,2,3.29,3.29,0,0,1-2.27.79,4.41,4.41,0,0,1-1.45-.26,5.49,5.49,0,0,0-.87-0.26,0.37,0.37,0,0,0-.35.16,1,1,0,0,0-.12.34h-0.33L186.14,17h0.34Z" transform="translate(-7.07 -7.39)"/><path class="cls-2" d="M8.88,30.61a4.63,4.63,0,0,1,.27-1.56A4.31,4.31,0,0,1,10,27.66a4,4,0,0,1,1.3-1A3.9,3.9,0,0,1,13,26.29a3.64,3.64,0,0,1,2,.52,3.27,3.27,0,0,1,1.23,1.37l-0.87.56a2.53,2.53,0,0,0-.47-0.7,2.44,2.44,0,0,0-.6-0.45,2.57,2.57,0,0,0-.67-0.24A3.2,3.2,0,0,0,13,27.28a2.65,2.65,0,0,0-1.27.3,2.94,2.94,0,0,0-.93.78,3.37,3.37,0,0,0-.57,1.09A4,4,0,0,0,10,30.66a3.75,3.75,0,0,0,.23,1.3A3.57,3.57,0,0,0,10.84,33a3.06,3.06,0,0,0,1,.76,2.59,2.59,0,0,0,1.2.28,3,3,0,0,0,.7-0.08,2.6,2.6,0,0,0,.69-0.27A3,3,0,0,0,15,33.25a2.32,2.32,0,0,0,.47-0.69l0.92,0.5a2.7,2.7,0,0,1-.58.86,3.66,3.66,0,0,1-.84.63,4.31,4.31,0,0,1-1,.39,4.15,4.15,0,0,1-1,.13,3.46,3.46,0,0,1-1.63-.39,4.35,4.35,0,0,1-1.29-1,4.65,4.65,0,0,1-.84-1.43A4.6,4.6,0,0,1,8.88,30.61Z" transform="translate(-7.07 -7.39)"/><path class="cls-2" d="M21.2,35.06a3.68,3.68,0,0,1-1.67-.37,4.12,4.12,0,0,1-1.29-1,4.5,4.5,0,0,1-.83-1.41,4.65,4.65,0,0,1-.29-1.62A4.5,4.5,0,0,1,17.44,29a4.57,4.57,0,0,1,.86-1.4,4.15,4.15,0,0,1,1.3-1,3.73,3.73,0,0,1,1.63-.36,3.57,3.57,0,0,1,1.66.38,4.25,4.25,0,0,1,1.28,1,4.67,4.67,0,0,1,1.12,3A4.51,4.51,0,0,1,25,32.34a4.56,4.56,0,0,1-.85,1.4,4.12,4.12,0,0,1-1.29,1A3.71,3.71,0,0,1,21.2,35.06Zm-3-4.39a3.88,3.88,0,0,0,.21,1.28,3.54,3.54,0,0,0,.6,1.09,2.92,2.92,0,0,0,.94.76,2.64,2.64,0,0,0,1.22.28,2.55,2.55,0,0,0,1.24-.3A3,3,0,0,0,23.39,33,3.5,3.5,0,0,0,24,31.9a3.91,3.91,0,0,0,.2-1.23A3.87,3.87,0,0,0,24,29.39a3.38,3.38,0,0,0-.61-1.09,3.06,3.06,0,0,0-.94-0.75,2.75,2.75,0,0,0-2.45,0,3,3,0,0,0-.93.77,3.5,3.5,0,0,0-.59,1.09A3.83,3.83,0,0,0,18.23,30.67Z" transform="translate(-7.07 -7.39)"/><path class="cls-2" d="M31.91,28.16a1.82,1.82,0,0,0-.39-0.33A3.46,3.46,0,0,0,31,27.54a3.9,3.9,0,0,0-.67-0.21,3.49,3.49,0,0,0-.75-0.08,2.36,2.36,0,0,0-1.48.38,1.26,1.26,0,0,0-.47,1,1.15,1.15,0,0,0,.13.59,1.11,1.11,0,0,0,.42.4,3.21,3.21,0,0,0,.71.29l1,0.26a10.55,10.55,0,0,1,1.21.33A3.58,3.58,0,0,1,32,31a1.88,1.88,0,0,1,.59.68,2.19,2.19,0,0,1,.2,1,2.26,2.26,0,0,1-.24,1.08,2.16,2.16,0,0,1-.67.76,2.88,2.88,0,0,1-1,.44,5.27,5.27,0,0,1-1.24.14,5.75,5.75,0,0,1-1.9-.31,5.3,5.3,0,0,1-1.63-.91l0.52-.93a2.9,2.9,0,0,0,.51.41,4.15,4.15,0,0,0,.71.37,5.2,5.2,0,0,0,.85.27,4.31,4.31,0,0,0,1,.1,2.66,2.66,0,0,0,1.44-.33,1.22,1.22,0,0,0,.35-1.6A1.41,1.41,0,0,0,31,31.73a3.73,3.73,0,0,0-.79-0.32l-1.07-.29A10.61,10.61,0,0,1,28,30.78a3.13,3.13,0,0,1-.84-0.44,1.66,1.66,0,0,1-.51-0.62,2.07,2.07,0,0,1-.17-0.88,2.47,2.47,0,0,1,.23-1.1,2.29,2.29,0,0,1,.65-0.8,2.79,2.79,0,0,1,1-.49,4.78,4.78,0,0,1,2.83.1,4.42,4.42,0,0,1,1.26.72Z" transform="translate(-7.07 -7.39)"/><path class="cls-2" d="M41.77,35V28.3l-2.88,5.14H38.27L35.38,28.3V35h-1.1V26.34h1.16L38.57,32l3.15-5.62h1.15V35h-1.1Z" transform="translate(-7.07 -7.39)"/><path class="cls-2" d="M50.33,34v1H44.45V26.34h5.77v1H45.55v2.81h4.06V31H45.55v3h4.78Z" transform="translate(-7.07 -7.39)"/><path class="cls-2" d="M58.15,27.31h-3V35h-1.1V27.31h-3v-1h7.08v1Z" transform="translate(-7.07 -7.39)"/><path class="cls-2" d="M59.41,35V26.35h1.1V35h-1.1Z" transform="translate(-7.07 -7.39)"/><path class="cls-2" d="M62,30.61a4.63,4.63,0,0,1,.27-1.56,4.31,4.31,0,0,1,.81-1.39,4,4,0,0,1,1.3-1,3.9,3.9,0,0,1,1.74-.38,3.64,3.64,0,0,1,2,.52,3.27,3.27,0,0,1,1.23,1.37l-0.87.56A2.53,2.53,0,0,0,68,28a2.44,2.44,0,0,0-.6-0.45,2.57,2.57,0,0,0-.67-0.24,3.2,3.2,0,0,0-.67-0.07,2.65,2.65,0,0,0-1.27.3,2.94,2.94,0,0,0-.93.78,3.37,3.37,0,0,0-.57,1.09,4,4,0,0,0-.19,1.21,3.75,3.75,0,0,0,.23,1.3A3.57,3.57,0,0,0,64,33a3.06,3.06,0,0,0,1,.76,2.59,2.59,0,0,0,1.2.28,3,3,0,0,0,.7-0.08,2.6,2.6,0,0,0,.69-0.27,3,3,0,0,0,.62-0.48,2.32,2.32,0,0,0,.47-0.69l0.92,0.5a2.7,2.7,0,0,1-.58.86,3.66,3.66,0,0,1-.84.63,4.31,4.31,0,0,1-1,.39,4.15,4.15,0,0,1-1,.13,3.46,3.46,0,0,1-1.63-.39,4.35,4.35,0,0,1-1.29-1,4.65,4.65,0,0,1-.84-1.43A4.6,4.6,0,0,1,62,30.61Z" transform="translate(-7.07 -7.39)"/><path class="cls-2" d="M79.78,35l-0.9-.94a3.77,3.77,0,0,1-1.18.79,3.57,3.57,0,0,1-1.4.27,3.3,3.3,0,0,1-1.11-.18,2.81,2.81,0,0,1-.89-0.51,2.33,2.33,0,0,1-.59-0.76,2.17,2.17,0,0,1-.21-1,2.14,2.14,0,0,1,.14-0.79A2.61,2.61,0,0,1,74,31.25a3.8,3.8,0,0,1,.55-0.57q0.31-.26.65-0.51-0.3-.33-0.51-0.6a3.71,3.71,0,0,1-.34-0.51,2.3,2.3,0,0,1-.19-0.45,1.6,1.6,0,0,1-.06-0.45,1.79,1.79,0,0,1,.17-0.78,1.91,1.91,0,0,1,.47-0.62,2.17,2.17,0,0,1,.71-0.41,2.6,2.6,0,0,1,.88-0.15,2.68,2.68,0,0,1,.82.12,2,2,0,0,1,.67.35,1.68,1.68,0,0,1,.45.56,1.61,1.61,0,0,1,.16.73,1.68,1.68,0,0,1-.14.68,2.39,2.39,0,0,1-.38.59,3.57,3.57,0,0,1-.57.52l-0.7.49,2.21,2.32a4.22,4.22,0,0,0,.36-1,4.59,4.59,0,0,0,.13-1.1h0.89a5.84,5.84,0,0,1-.2,1.48,4.63,4.63,0,0,1-.54,1.25L81.2,35H79.78Zm-3.37-.73a2.43,2.43,0,0,0,1-.22,2.84,2.84,0,0,0,.85-0.61l-2.46-2.6a4.8,4.8,0,0,0-.93.86,1.58,1.58,0,0,0-.36,1,1.35,1.35,0,0,0,.16.66,1.47,1.47,0,0,0,.42.49,2,2,0,0,0,.6.3A2.36,2.36,0,0,0,76.42,34.27Zm-1.31-6.11a0.87,0.87,0,0,0,0,.27,1.3,1.3,0,0,0,.15.3,3.61,3.61,0,0,0,.29.38L76,29.63a8.83,8.83,0,0,0,1-.78,1.1,1.1,0,0,0,.4-0.83,0.89,0.89,0,0,0-.32-0.7A1.18,1.18,0,0,0,76.35,27a1.26,1.26,0,0,0-.9.32A1,1,0,0,0,75.11,28.16Z" transform="translate(-7.07 -7.39)"/><path class="cls-2" d="M85.4,35V26.34h5.72v1H86.49V30.2h3.89v0.92H86.49V35H85.4Z" transform="translate(-7.07 -7.39)"/><path class="cls-2" d="M89.82,35l3.56-8.66h0.9L97.84,35H96.67l-1-2.54H92L91,35H89.82Zm4-7.39-1.61,4H95.4Z" transform="translate(-7.07 -7.39)"/><path class="cls-2" d="M106.49,35V28.3l-2.88,5.14H103L100.1,28.3V35H99V26.34h1.16L103.29,32l3.15-5.62h1.15V35h-1.1Z" transform="translate(-7.07 -7.39)"/><path class="cls-2" d="M109.42,35V26.35h1.1V35h-1.1Z" transform="translate(-7.07 -7.39)"/><path class="cls-2" d="M112.34,35V26.34h1.1V34h4.83v1h-5.93Z" transform="translate(-7.07 -7.39)"/><path class="cls-2" d="M117.9,26.34l2.62,4.51,2.65-4.51h1.2l-3.29,5.5V35H120V31.81l-3.28-5.48h1.21Z" transform="translate(-7.07 -7.39)"/><path class="cls-2" d="M128,35V26.34h3a4.55,4.55,0,0,1,1.82.34,3.73,3.73,0,0,1,1.31.93A3.88,3.88,0,0,1,135,29a5.27,5.27,0,0,1,.26,1.68,5.17,5.17,0,0,1-.29,1.79,3.83,3.83,0,0,1-.84,1.37,3.76,3.76,0,0,1-1.32.88A4.58,4.58,0,0,1,131,35h-3Zm6.08-4.34a4.31,4.31,0,0,0-.2-1.35,2.89,2.89,0,0,0-.6-1.06,2.8,2.8,0,0,0-1-.69,3.23,3.23,0,0,0-1.31-.25h-1.9V34H131a3.25,3.25,0,0,0,1.32-.26,2.67,2.67,0,0,0,1-.71,3.12,3.12,0,0,0,.58-1.07A4.27,4.27,0,0,0,134.12,30.66Z" transform="translate(-7.07 -7.39)"/><path class="cls-2" d="M142.68,34v1H136.8V26.34h5.77v1H137.9v2.81H142V31H137.9v3h4.78Z" transform="translate(-7.07 -7.39)"/><path class="cls-2" d="M145.34,28.39V35h-1.1V26.34h0.85l5.37,6.75V26.35h1.1V35h-0.93Z" transform="translate(-7.07 -7.39)"/><path class="cls-2" d="M159.66,27.31h-3V35h-1.1V27.31h-3v-1h7.08v1Z" transform="translate(-7.07 -7.39)"/><path class="cls-2" d="M160.91,35V26.35H162V35h-1.1Z" transform="translate(-7.07 -7.39)"/><path class="cls-2" d="M169,28.16a1.83,1.83,0,0,0-.39-0.33,3.45,3.45,0,0,0-.55-0.29,3.89,3.89,0,0,0-.66-0.21,3.49,3.49,0,0,0-.75-0.08,2.36,2.36,0,0,0-1.48.38,1.26,1.26,0,0,0-.47,1,1.15,1.15,0,0,0,.13.59,1.11,1.11,0,0,0,.42.4,3.2,3.2,0,0,0,.71.29l1,0.26a10.58,10.58,0,0,1,1.21.33,3.58,3.58,0,0,1,.93.47,1.89,1.89,0,0,1,.59.68,2.2,2.2,0,0,1,.2,1,2.27,2.27,0,0,1-.24,1.08,2.17,2.17,0,0,1-.67.76,2.89,2.89,0,0,1-1,.44,5.27,5.27,0,0,1-1.24.14,5.76,5.76,0,0,1-1.9-.31,5.3,5.3,0,0,1-1.63-.91l0.52-.93a3,3,0,0,0,.51.41,4.12,4.12,0,0,0,.71.37,5.19,5.19,0,0,0,.85.27,4.31,4.31,0,0,0,1,.1,2.65,2.65,0,0,0,1.44-.33,1.22,1.22,0,0,0,.35-1.6,1.41,1.41,0,0,0-.48-0.43,3.71,3.71,0,0,0-.79-0.32l-1.07-.29a10.55,10.55,0,0,1-1.16-.34,3.12,3.12,0,0,1-.84-0.44,1.67,1.67,0,0,1-.51-0.62,2.08,2.08,0,0,1-.17-0.88,2.48,2.48,0,0,1,.23-1.1,2.29,2.29,0,0,1,.65-0.8,2.79,2.79,0,0,1,1-.49,4.78,4.78,0,0,1,2.83.1,4.42,4.42,0,0,1,1.26.72Z" transform="translate(-7.07 -7.39)"/><path class="cls-2" d="M177.25,27.31h-3V35h-1.1V27.31h-3v-1h7.08v1Z" transform="translate(-7.07 -7.39)"/><path class="cls-2" d="M178.5,35V26.34h3.71a2.35,2.35,0,0,1,1.05.24,2.68,2.68,0,0,1,.83.63,3.06,3.06,0,0,1,.54.89,2.73,2.73,0,0,1,.2,1,3,3,0,0,1-.13.87,2.69,2.69,0,0,1-.37.76,2.47,2.47,0,0,1-.57.59,2.26,2.26,0,0,1-.75.35l2.1,3.32h-1.24l-2-3.11H179.6V35h-1.1Zm1.1-4.09h2.62a1.29,1.29,0,0,0,.62-0.15,1.46,1.46,0,0,0,.47-0.4,1.94,1.94,0,0,0,.3-0.58,2.15,2.15,0,0,0,.11-0.68,1.86,1.86,0,0,0-.13-0.69,2.07,2.07,0,0,0-.34-0.57,1.56,1.56,0,0,0-.5-0.39,1.37,1.37,0,0,0-.6-0.14H179.6v3.6Z" transform="translate(-7.07 -7.39)"/><path class="cls-2" d="M186.23,26.34l2.62,4.51,2.65-4.51h1.2l-3.29,5.5V35h-1.1V31.81L185,26.34h1.21Z" transform="translate(-7.07 -7.39)"/></svg>